# xmcd CD database file
#
# Track frame offsets:
#	150
#	18827
#	34547
#	51403
#	69775
#	90254
#	103904
#	115959
#	129190
#	145077
#	158026
#	168968
#	182945
#	199458
#	216583
#	232575
#	248009
#	265864
#
# Disc length: 3701 seconds
#
# Revision: 0
# Processed by: cddbd v1.5.2PL0 Copyright (c) Steve Scherf et al.
# Submitted via: CDex 1.51
#
DISCID=ee0e7312
DTITLE=l B S Country Collection - Vol  11
DYEAR=1900
DGENRE=Country
TTITLE0=Brian Letton - Two Chords
TTITLE1=Noel Parlane - If Heartaches Meant Gold
TTITLE2=Shaza Leigh - Old Calare
TTITLE3=Tom Maxwell - One Lifetime's Not Enough
TTITLE4=Naomi Therese - All In Good Time
TTITLE5=Dusty Fraser - True Australian Bushman
TTITLE6=Kirsty Lee Akers - Bashed Up,Beaten,Battered Broken Heart
TTITLE7=Ian Quinn - Something Of A Privilege
TTITLE8=Darryl Lamb - Don't Cry Joni ( Duet With Rachel Lamb )
TTITLE9=Michael Pincott - Who Will Remember Them
TTITLE10=Lindsay Waddington - The Barrington Barn Dance
TTITLE11=Cameron Clayton - A Little Bit Of Country In Us All
TTITLE12=Anita Ree - The Stockhorse And His Rider
TTITLE13=Shane Hogan - Free Wheelin' Friend 
TTITLE14=Ashley Cook - Paddy
TTITLE15=Rick Aitchison - It's Not The Same
TTITLE16=Pat Pincott - Busker Dan
TTITLE17=Lindsay Butler - Ride The Sunlander
EXTD=
EXTT0=
EXTT1=
EXTT2=
EXTT3=
EXTT4=
EXTT5=
EXTT6=
EXTT7=
EXTT8=
EXTT9=
EXTT10=
EXTT11=
EXTT12=
EXTT13=
EXTT14=
EXTT15=
EXTT16=
EXTT17=
PLAYORDER=
